<svg xmlns="http://www.w3.org/2000/svg" height="512" width="512" data-name="Layer 1"><rect id="backgroundrect" width="100%" height="100%" x="0" y="0" fill="none" stroke="none"/><g class="currentLayer" style=""><title>Layer 1</title><path d="m96.679 269.536c42.759 14.111 99.437 21.882 159.6 21.882 60.231 0 116.817-7.675 159.334-21.611 39.846-13.061 62.7-30.235 62.7-47.117 0-21.88-38.423-44.022-98.3-56.9l1.661 30.526a6 6 0 0 1 -4.207 6.055l-35.1 10.932a281.347 281.347 0 0 1 -86.567 13.749 277.583 277.583 0 0 1 -86.236-13.771l-35.019-10.907a6 6 0 0 1 -4.207-6.055l1.685-30.986c-59.823 12.852-98.33 35.048-98.33 56.807 0 16.911 22.957 34.186 62.986 47.396z" id="svg_1" class="selected" fill="#ffffff" fill-opacity="1"/><path d="m338.732 201.868 30.7-9.562-6.768-124.324a21.072 21.072 0 0 0 -26.039-19.325l-47.1 11.5a141.921 141.921 0 0 1 -67.054 0l-47.1-11.5a21.072 21.072 0 0 0 -26.039 19.325l-6.764 124.324 30.636 9.543a266.353 266.353 0 0 0 165.528.019z" id="svg_2" class="selected" fill="#ffffff" fill-opacity="1"/><path d="m292.171 351.954c-13.566-11.087-24.7-16.031-36.114-16.031s-22.549 4.944-36.115 16.031l7.594 9.292c21.858-17.864 35.184-17.864 57.041 0z" id="svg_3" class="selected" fill="#ffffff" fill-opacity="1"/><circle cx="167.03700256347656" cy="398.72698974609375" r="65.22799682617188" id="svg_4" class="selected" fill="#ffffff" fill-opacity="1"/><circle cx="345.864990234375" cy="398.72698974609375" r="65.22799682617188" transform="matrix(0.383,-0.924,0.924,0.383,-154.868,565.679) " id="svg_5" class="selected" fill="#ffffff" fill-opacity="1"/></g></svg>