<svg xmlns="http://www.w3.org/2000/svg" width="74" height="74"><rect id="backgroundrect" width="100%" height="100%" x="0" y="0" fill="none" stroke="none"/><g class="currentLayer" style=""><title>Layer 1</title><g id="_2_PT" data-name="2 PT" class="selected" fill="#ffffff" fill-opacity="1"><path d="M71,22H3a1,1,0,0,1-.908-1.419l6-13A1,1,0,0,1,9,7H65a1,1,0,0,1,.908.581l6,13A1,1,0,0,1,71,22ZM4.563,20H69.437L64.36,9H9.64Z" id="svg_32" fill="#ffffff" fill-opacity="1"/><path d="M7.857,34A5.864,5.864,0,0,1,2,28.143V21a1,1,0,0,1,1-1h9.714a1,1,0,0,1,1,1v7.143A5.864,5.864,0,0,1,7.857,34ZM4,22v6.143a3.857,3.857,0,0,0,7.714,0V22Z" id="svg_33" fill="#ffffff" fill-opacity="1"/><path d="M17.571,34a5.864,5.864,0,0,1-5.857-5.857V21a1,1,0,0,1,1-1h9.714a1,1,0,0,1,1,1v7.143A5.864,5.864,0,0,1,17.571,34ZM13.714,22v6.143a3.857,3.857,0,0,0,7.714,0V22Z" id="svg_34" fill="#ffffff" fill-opacity="1"/><path d="M27.286,34a5.864,5.864,0,0,1-5.857-5.857V21a1,1,0,0,1,1-1h9.714a1,1,0,0,1,1,1v7.143A5.864,5.864,0,0,1,27.286,34ZM23.429,22v6.143a3.857,3.857,0,0,0,7.714,0V22Z" id="svg_35" fill="#ffffff" fill-opacity="1"/><path d="M37,34a5.864,5.864,0,0,1-5.857-5.857V21a1,1,0,0,1,1-1h9.714a1,1,0,0,1,1,1v7.143A5.864,5.864,0,0,1,37,34ZM33.143,22v6.143a3.857,3.857,0,0,0,7.714,0V22Z" id="svg_36" fill="#ffffff" fill-opacity="1"/><path d="M46.714,34a5.864,5.864,0,0,1-5.857-5.857V21a1,1,0,0,1,1-1h9.714a1,1,0,0,1,1,1v7.143A5.864,5.864,0,0,1,46.714,34ZM42.857,22v6.143a3.857,3.857,0,0,0,7.714,0V22Z" id="svg_37" fill="#ffffff" fill-opacity="1"/><path d="M56.429,34a5.864,5.864,0,0,1-5.857-5.857V21a1,1,0,0,1,1-1h9.714a1,1,0,0,1,1,1v7.143A5.864,5.864,0,0,1,56.429,34ZM52.571,22v6.143a3.857,3.857,0,0,0,7.714,0V22Z" id="svg_38" fill="#ffffff" fill-opacity="1"/><path d="M66.143,34a5.864,5.864,0,0,1-5.857-5.857V21a1,1,0,0,1,1-1H71a1,1,0,0,1,1,1v7.143A5.864,5.864,0,0,1,66.143,34ZM62.286,22v6.143a3.857,3.857,0,0,0,7.714,0V22Z" id="svg_39" fill="#ffffff" fill-opacity="1"/><path d="M68,70H5.91a1,1,0,0,1-1-1V32h2V68H67V32h2V69A1,1,0,0,1,68,70Z" id="svg_40" fill="#ffffff" fill-opacity="1"/><path d="M60,70H43a1,1,0,0,1-1-1V41a1,1,0,0,1,1-1H60a1,1,0,0,1,1,1V69A1,1,0,0,1,60,70ZM44,68H59V42H44Z" id="svg_41" fill="#ffffff" fill-opacity="1"/><path d="M37,61.5H12a1,1,0,0,1-1-1v-20a1,1,0,0,1,1-1H37a1,1,0,0,1,1,1v20A1,1,0,0,1,37,61.5Zm-24-2H36v-18H13Z" id="svg_42" fill="#ffffff" fill-opacity="1"/></g></g></svg>