<?xml version="1.0"?>
<svg xmlns="http://www.w3.org/2000/svg" viewBox="0 0 74 74" width="512" height="512"><g id="Numbers"><text transform="translate(31.995 -18.544)" font-size="18" fill="red" font-family="ArialMT, Arial">4<tspan x="-5.005" y="124">14</tspan><tspan x="-5.005" y="248">24</tspan><tspan x="-5.005" y="372">34</tspan><tspan x="-5.005" y="496">44</tspan><tspan x="-5.005" y="620">54</tspan><tspan x="-5.005" y="744">64</tspan><tspan x="-5.005" y="868">74</tspan><tspan x="-5.005" y="992">84</tspan><tspan x="-5.005" y="1116">94</tspan><tspan x="-10.011" y="1240">104</tspan><tspan x="-9.343" y="1364" letter-spacing="-0.074em">1</tspan><tspan x="-0.668" y="1364">14</tspan><tspan x="-10.011" y="1488">124</tspan><tspan x="-10.011" y="1612">134</tspan><tspan x="-10.011" y="1736">144</tspan><tspan x="-10.011" y="1860">154</tspan><tspan x="-10.011" y="1984">164</tspan><tspan x="-10.011" y="2108">174</tspan><tspan x="-10.011" y="2232">184</tspan><tspan x="-10.011" y="2356">194</tspan><tspan x="-10.011" y="2480">204</tspan><tspan x="-10.011" y="2604">214</tspan><tspan x="-10.011" y="2728">224</tspan><tspan x="-10.011" y="2852">234</tspan><tspan x="-10.011" y="2976">244</tspan><tspan x="-10.011" y="3100">254</tspan><tspan x="-10.011" y="3224">264</tspan><tspan x="-10.011" y="3348">274</tspan><tspan x="-10.011" y="3472">284</tspan><tspan x="-10.011" y="3596">294</tspan></text></g><g id="_2_PT" data-name="2 PT"><path d="M71,22H3a1,1,0,0,1-.908-1.419l6-13A1,1,0,0,1,9,7H65a1,1,0,0,1,.908.581l6,13A1,1,0,0,1,71,22ZM4.563,20H69.437L64.36,9H9.64Z"/><path d="M7.857,34A5.864,5.864,0,0,1,2,28.143V21a1,1,0,0,1,1-1h9.714a1,1,0,0,1,1,1v7.143A5.864,5.864,0,0,1,7.857,34ZM4,22v6.143a3.857,3.857,0,0,0,7.714,0V22Z"/><path d="M17.571,34a5.864,5.864,0,0,1-5.857-5.857V21a1,1,0,0,1,1-1h9.714a1,1,0,0,1,1,1v7.143A5.864,5.864,0,0,1,17.571,34ZM13.714,22v6.143a3.857,3.857,0,0,0,7.714,0V22Z"/><path d="M27.286,34a5.864,5.864,0,0,1-5.857-5.857V21a1,1,0,0,1,1-1h9.714a1,1,0,0,1,1,1v7.143A5.864,5.864,0,0,1,27.286,34ZM23.429,22v6.143a3.857,3.857,0,0,0,7.714,0V22Z"/><path d="M37,34a5.864,5.864,0,0,1-5.857-5.857V21a1,1,0,0,1,1-1h9.714a1,1,0,0,1,1,1v7.143A5.864,5.864,0,0,1,37,34ZM33.143,22v6.143a3.857,3.857,0,0,0,7.714,0V22Z"/><path d="M46.714,34a5.864,5.864,0,0,1-5.857-5.857V21a1,1,0,0,1,1-1h9.714a1,1,0,0,1,1,1v7.143A5.864,5.864,0,0,1,46.714,34ZM42.857,22v6.143a3.857,3.857,0,0,0,7.714,0V22Z"/><path d="M56.429,34a5.864,5.864,0,0,1-5.857-5.857V21a1,1,0,0,1,1-1h9.714a1,1,0,0,1,1,1v7.143A5.864,5.864,0,0,1,56.429,34ZM52.571,22v6.143a3.857,3.857,0,0,0,7.714,0V22Z"/><path d="M66.143,34a5.864,5.864,0,0,1-5.857-5.857V21a1,1,0,0,1,1-1H71a1,1,0,0,1,1,1v7.143A5.864,5.864,0,0,1,66.143,34ZM62.286,22v6.143a3.857,3.857,0,0,0,7.714,0V22Z"/><path d="M68,70H5.91a1,1,0,0,1-1-1V32h2V68H67V32h2V69A1,1,0,0,1,68,70Z"/><path d="M60,70H43a1,1,0,0,1-1-1V41a1,1,0,0,1,1-1H60a1,1,0,0,1,1,1V69A1,1,0,0,1,60,70ZM44,68H59V42H44Z"/><path d="M37,61.5H12a1,1,0,0,1-1-1v-20a1,1,0,0,1,1-1H37a1,1,0,0,1,1,1v20A1,1,0,0,1,37,61.5Zm-24-2H36v-18H13Z"/></g></svg>
