<svg xmlns="http://www.w3.org/2000/svg" xmlns:xlink="http://www.w3.org/1999/xlink" width="40" height="40" viewBox="0 0 40 40">
  <defs>
    <clipPath id="clip-Custom_Size_1">
      <rect width="40" height="40"/>
    </clipPath>
  </defs>
  <g id="Custom_Size_1" data-name="Custom Size – 1" clip-path="url(#clip-Custom_Size_1)">
    <g id="igtv" transform="translate(12 11.004)">
      <path id="Path_4" data-name="Path 4" d="M9.028,4.753h3.695L10.842,2.631a1.585,1.585,0,1,1,2.373-2.1l2.7,3.043,2.7-3.043a1.585,1.585,0,1,1,2.373,2.1L19.1,4.753h4.036a9.034,9.034,0,0,1,9.028,8.981V27.426a9.034,9.034,0,0,1-9.028,8.981H9.028a9.022,9.022,0,0,1-6.391-2.655A8.934,8.934,0,0,1,0,27.426V13.734A8.934,8.934,0,0,1,2.637,7.408,9.022,9.022,0,0,1,9.028,4.753Zm-.767,17.52a1.585,1.585,0,1,1-.794-3.07L16,17a1.586,1.586,0,0,1,1.932,1.138,1.607,1.607,0,0,1,.05.471l-.095,1.89,5.68-1.636a1.584,1.584,0,0,1,.871,3.046l-7.71,2.222a1.608,1.608,0,0,1-.61.092,1.591,1.591,0,0,1-1.511-1.659l.1-1.95L8.261,22.273ZM23.138,7.843H9.028A5.816,5.816,0,0,0,4.916,9.556a5.894,5.894,0,0,0-1.73,4.178V27.426A5.894,5.894,0,0,0,4.916,31.6a5.8,5.8,0,0,0,4.113,1.713H23.135A5.816,5.816,0,0,0,27.248,31.6a5.894,5.894,0,0,0,1.73-4.178V13.734a5.894,5.894,0,0,0-1.73-4.178,5.792,5.792,0,0,0-4.11-1.713Z" transform="translate(-8 -10)" fill="#fff"/>
    </g>
  </g>
</svg>
